<!--?xml version="1.0" standalone="no"?--><svg version="1.0" xmlns="http://www.w3.org/2000/svg" width="300.000000pt" height="264.000000pt" viewBox="0 0 300.000000 264.000000" preserveAspectRatio="xMidYMid meet">
<metadata>
  <rdf:rdf xmlns:rdf="http://www.w3.org/1999/02/22-rdf-syntax-ns#" xmlns:rdfs="http://www.w3.org/2000/01/rdf-schema#" xmlns:dc="http://purl.org/dc/elements/1.1/">
    <rdf:description dc:title="heart border red" dc:publisher="Hiox" dc:date="2015-05-12" dc:format="image/svg+xml" dc:language="en">
      <dc:creator>
        <rdf:bag>
          <rdf:li>svgimages.com</rdf:li>
        </rdf:bag>
      </dc:creator>
    </rdf:description>
  </rdf:rdf>
</metadata>
<g transform="translate(0.000000,264.000000) scale(0.100000,-0.100000)" fill="#EC2B32" stroke="none">
<path d="M327 2622 c-32 -35 -17 -78 54 -157 15 -16 36 -41 47 -54 l19 -25 27
43 c15 23 33 44 40 47 8 3 24 25 37 49 23 42 23 45 6 79 -14 31 -22 36 -49 36
-23 0 -37 -7 -46 -21 l-13 -21 -23 21 c-28 26 -77 27 -99 3z" id="node1" class="node"></path>
<path d="M626 2615 c-25 -37 -20 -60 23 -106 22 -22 50 -56 63 -75 13 -19 28
-34 35 -34 6 0 21 16 33 35 12 19 27 38 35 42 16 10 65 82 65 97 0 6 -11 23
-24 39 -29 34 -75 37 -94 6 l-13 -21 -23 21 c-31 29 -79 28 -100 -4z" id="node2" class="node"></path>
<path d="M930 2615 c-23 -25 -23 -26 -6 -62 16 -33 98 -138 121 -155 5 -4 16
5 25 20 9 15 31 41 49 57 32 30 61 78 61 99 0 6 -12 23 -25 39 -27 30 -79 38
-89 12 -3 -8 -12 -15 -20 -15 -7 0 -16 7 -20 15 -9 25 -69 19 -96 -10z" id="node3" class="node"></path>
<path d="M1232 2620 c-25 -40 -15 -75 42 -138 30 -34 59 -69 66 -79 10 -17 11
-17 23 1 7 11 30 40 52 65 72 83 81 114 40 149 -25 22 -75 30 -75 13 0 -17
-33 -21 -50 -6 -25 22 -82 19 -98 -5z" id="node4" class="node"></path>
<path d="M1532 2620 c-6 -11 -12 -29 -12 -40 0 -24 38 -87 70 -115 13 -11 31
-33 40 -48 16 -26 19 -27 31 -12 8 9 32 38 54 63 65 75 73 96 50 138 -15 28
-24 34 -50 34 -19 0 -39 -8 -50 -20 -18 -20 -18 -20 -35 0 -23 27 -81 27 -98
0z" id="node5" class="node"></path>
<path d="M1831 2611 c-12 -16 -21 -33 -21 -38 0 -13 131 -168 145 -171 6 -2
24 15 40 38 15 22 31 40 35 40 13 0 50 70 50 93 -1 54 -71 87 -110 52 -17 -15
-50 -11 -50 6 0 5 -15 9 -34 9 -27 0 -39 -7 -55 -29z" id="node6" class="node"></path>
<path d="M2138 2618 c-31 -38 -20 -73 44 -138 24 -25 47 -53 51 -62 6 -18 37
-26 37 -10 0 4 18 27 40 50 22 22 40 45 40 50 0 5 7 15 15 22 21 17 19 73 -3
93 -23 21 -75 22 -92 2 -12 -14 -15 -14 -36 0 -34 22 -76 19 -96 -7z" id="node7" class="node"></path>
<path d="M2442 2628 c-33 -42 -25 -70 41 -147 23 -27 49 -59 57 -71 15 -20 16
-19 77 52 52 60 63 79 63 109 0 28 -6 41 -25 53 -33 21 -54 20 -81 -5 l-23
-21 -13 21 c-15 24 -79 30 -96 9z" id="node8" class="node"></path>
<path d="M52 2588 c-20 -20 -13 -53 17 -85 16 -17 34 -41 41 -53 16 -29 30
-23 79 33 45 53 50 75 23 100 -22 20 -43 22 -60 5 -10 -10 -17 -10 -32 0 -25
15 -53 15 -68 0z" id="node9" class="node"></path>
<path d="M2865 2571 c-17 -15 -41 -33 -53 -40 -29 -15 -28 -39 2 -50 13 -5 26
-16 29 -25 3 -8 20 -22 37 -31 29 -15 34 -15 56 0 26 17 32 53 12 73 -9 9 -9
15 0 24 15 15 15 51 0 66 -20 20 -51 14 -83 -17z" id="node10" class="node"></path>
<path d="M2905 2328 c-11 -6 -39 -27 -61 -47 -23 -20 -54 -46 -69 -58 l-27
-23 44 -35 c113 -91 153 -105 191 -64 20 21 23 69 5 87 -10 10 -10 17 0 32 20
33 15 87 -10 104 -26 19 -45 20 -73 4z" id="node11" class="node"></path>
<path d="M23 2311 c-26 -22 -30 -65 -8 -87 19 -19 19 -29 0 -48 -21 -20 -19
-69 3 -89 31 -28 66 -20 122 26 29 23 66 52 83 64 l30 22 -28 23 c-15 13 -44
37 -64 54 -68 58 -100 66 -138 35z" id="node12" class="node"></path>
<path d="M43 2027 c-4 -7 -16 -16 -25 -20 -23 -8 -24 -62 -3 -84 14 -14 14
-17 0 -32 -8 -10 -15 -34 -15 -53 0 -27 6 -40 26 -53 33 -22 65 -14 107 28 19
18 50 43 70 57 20 14 37 30 37 37 0 7 -16 24 -36 40 -20 15 -50 40 -66 55 -17
15 -36 28 -43 28 -7 0 -20 3 -28 6 -8 3 -19 -1 -24 -9z" id="node13" class="node"></path>
<path d="M2898 2026 c-14 -8 -42 -29 -61 -47 -19 -19 -45 -42 -58 -51 l-24
-18 26 -22 c70 -61 113 -94 135 -102 54 -22 110 69 69 111 -16 15 -16 18 -1
28 10 8 16 27 16 52 0 33 -4 42 -25 51 -33 15 -44 15 -77 -2z" id="node14" class="node"></path>
<path d="M2906 1735 c-16 -9 -46 -31 -67 -49 -20 -19 -47 -40 -59 -46 -12 -6
-20 -17 -18 -24 4 -18 138 -125 164 -132 49 -13 98 84 59 116 -14 12 -14 15 0
30 25 27 19 85 -10 104 -30 20 -33 20 -69 1z" id="node15" class="node"></path>
<path d="M28 1722 c-33 -20 -38 -65 -11 -95 17 -18 17 -19 0 -32 -21 -15 -22
-58 -1 -90 26 -39 64 -33 124 20 28 25 62 52 75 61 42 28 41 29 -98 132 -36
26 -53 27 -89 4z" id="node16" class="node"></path>
<path d="M2914 1446 c-11 -6 -41 -28 -65 -48 -24 -20 -55 -46 -69 -57 l-25
-21 31 -27 c64 -56 90 -75 122 -89 30 -13 36 -13 62 3 24 14 30 24 30 51 0 18
-7 41 -16 50 -15 14 -15 17 0 27 19 14 21 71 3 89 -25 26 -51 33 -73 22z" id="node17" class="node"></path>
<path d="M26 1429 c-33 -26 -36 -78 -5 -97 l21 -13 -21 -23 c-12 -12 -21 -36
-21 -52 0 -23 7 -33 35 -48 31 -17 36 -17 58 -3 13 9 30 22 38 29 8 7 35 29
61 48 26 19 48 40 48 47 0 7 -17 25 -37 40 -21 15 -45 35 -53 44 -16 17 -73
49 -88 49 -5 0 -21 -9 -36 -21z" id="node18" class="node"></path>
<path d="M28 1135 c-32 -28 -37 -69 -11 -97 15 -17 15 -19 0 -36 -10 -10 -17
-34 -17 -53 0 -27 6 -37 27 -46 43 -20 59 -16 111 30 27 23 64 54 82 70 l33
28 -47 30 c-25 17 -46 35 -46 40 0 6 -98 62 -104 59 -1 0 -13 -12 -28 -25z" id="node19" class="node"></path>
<path d="M2836 1094 c-42 -37 -76 -70 -74 -74 4 -10 110 -95 137 -110 25 -13
66 -6 87 15 19 18 18 69 -1 85 -14 12 -14 15 0 30 25 27 19 85 -10 104 -40 26
-57 20 -139 -50z" id="node20" class="node"></path>
<path d="M2909 857 c-14 -11 -37 -30 -129 -106 l-25 -21 30 -26 c17 -14 48
-41 69 -59 51 -44 87 -52 120 -28 31 22 36 78 9 99 -17 13 -17 15 0 28 26 20
23 83 -5 107 -27 21 -47 23 -69 6z" id="node21" class="node"></path>
<path d="M44 845 c-3 -8 -14 -17 -25 -20 -24 -8 -25 -51 -3 -76 15 -17 15 -20
0 -44 -23 -35 -17 -74 16 -98 32 -24 52 -18 108 31 19 17 50 43 67 57 18 15
33 32 32 38 0 14 -86 83 -133 109 -39 21 -55 22 -62 3z" id="node22" class="node"></path>
<path d="M2862 526 c-28 -24 -63 -53 -77 -64 -37 -29 -32 -36 97 -130 37 -27
65 -28 96 -3 27 23 29 67 5 94 -17 18 -17 19 0 28 24 14 23 80 -1 102 -31 28
-64 20 -120 -27z" id="node23" class="node"></path>
<path d="M33 544 c-27 -13 -33 -23 -33 -47 0 -17 8 -39 17 -50 17 -18 17 -19
0 -32 -25 -18 -22 -73 5 -96 33 -30 63 -23 118 26 28 25 62 52 75 61 14 9 25
21 25 26 0 13 -92 97 -106 98 -6 0 -17 7 -24 15 -16 19 -37 19 -77 -1z" id="node24" class="node"></path>
<path d="M401 195 c-24 -31 -52 -64 -62 -73 -29 -25 -26 -85 6 -106 27 -18 71
-21 80 -6 8 13 45 13 45 0 0 -5 18 -10 40 -10 31 0 43 5 56 25 22 34 13 61
-43 128 -26 30 -55 66 -63 78 -16 21 -16 21 -59 -36z" id="node25" class="node"></path>
<path d="M2550 245 c0 -6 -25 -39 -55 -73 -64 -73 -73 -98 -51 -141 13 -25 23
-31 49 -31 22 0 36 7 45 21 l13 21 23 -21 c28 -26 77 -27 99 -3 30 33 21 67
-39 139 -75 90 -84 99 -84 88z" id="node26" class="node"></path>
<path d="M726 221 c-9 -10 -16 -22 -16 -27 0 -5 -11 -18 -25 -28 -34 -25 -65
-78 -65 -109 0 -15 9 -31 25 -41 27 -18 85 -22 85 -6 0 6 9 10 20 10 11 0 20
-4 20 -10 0 -5 20 -10 44 -10 40 0 46 3 60 30 18 38 9 60 -58 130 -25 27 -46
53 -46 58 0 19 -28 21 -44 3z" id="node27" class="node"></path>
<path d="M999 187 c-79 -89 -89 -125 -51 -169 19 -22 68 -23 89 -3 14 14 17
14 32 0 10 -8 34 -15 54 -15 28 0 40 6 53 25 22 34 13 61 -42 120 -25 28 -53
60 -61 73 -8 12 -18 22 -22 22 -3 0 -27 -24 -52 -53z" id="node28" class="node"></path>
<path d="M1305 193 c-59 -66 -75 -94 -75 -129 0 -58 67 -86 105 -44 18 20 18
20 35 0 22 -25 78 -27 96 -2 16 20 18 68 4 85 -45 56 -113 132 -118 133 -4 1
-25 -18 -47 -43z" id="node29" class="node"></path>
<path d="M1599 187 c-47 -53 -79 -105 -79 -130 0 -21 48 -57 77 -57 14 0 34 7
43 15 15 14 18 14 30 0 19 -23 78 -19 101 8 10 12 18 30 19 39 0 9 -27 49 -60
89 -33 39 -60 75 -60 80 0 22 -29 4 -71 -44z" id="node30" class="node"></path>
<path d="M1925 213 c-10 -14 -28 -36 -40 -47 -29 -27 -65 -91 -65 -116 0 -10
9 -22 20 -25 11 -3 20 -11 20 -16 0 -15 60 -10 77 6 14 14 17 14 32 0 38 -33
121 -5 121 42 0 23 -34 81 -56 95 -6 4 -23 25 -39 48 -33 47 -46 50 -70 13z" id="node31" class="node"></path>
<path d="M2203 183 c-27 -32 -58 -73 -67 -91 -16 -31 -16 -34 4 -62 24 -34 71
-41 97 -15 14 14 18 14 39 0 32 -20 84 -19 100 3 24 31 16 65 -26 112 -22 25
-50 60 -62 77 -13 18 -26 33 -29 33 -3 0 -28 -26 -56 -57z" id="node32" class="node"></path>
<path d="M62 214 c-24 -17 -29 -53 -10 -72 9 -9 9 -15 0 -24 -15 -15 -15 -51
0 -66 21 -21 54 -13 91 21 20 17 44 37 54 43 17 11 17 12 -2 34 -21 25 -94 80
-104 80 -4 0 -17 -7 -29 -16z" id="node33" class="node"></path>
<path d="M2822 166 c-50 -55 -63 -93 -37 -113 23 -16 57 -17 73 -1 9 9 15 9
24 0 15 -15 51 -15 66 0 21 21 12 52 -28 98 -22 24 -40 48 -40 52 0 18 -20 6
-58 -36z" id="node34" class="node"></path>
</g>
<g transform="translate(0.000000,264.000000) scale(0.100000,-0.100000)" fill="#FFFFFF" stroke="none">

<path d="M425 2620 c14 -15 21 -17 32 -9 22 19 15 29 -19 29 -30 0 -31 0 -13
-20z" id="node36" class="node"></path>
<path d="M725 2620 c14 -15 21 -17 32 -9 22 19 15 29 -19 29 -30 0 -31 0 -13
-20z" id="node37" class="node"></path>
<path d="M1027 2625 c6 -18 34 -16 41 3 2 7 -6 12 -22 12 -19 0 -24 -4 -19
-15z" id="node38" class="node"></path>
<path d="M1331 2625 c9 -9 23 -13 32 -9 28 10 19 24 -15 24 -29 0 -31 -2 -17
-15z" id="node39" class="node"></path>
<path d="M1620 2634 c0 -3 6 -12 14 -19 12 -12 16 -11 31 5 18 19 17 20 -13
20 -18 0 -32 -3 -32 -6z" id="node40" class="node"></path>
<path d="M1920 2631 c0 -17 34 -22 49 -6 14 13 12 15 -17 15 -18 0 -32 -4 -32
-9z" id="node41" class="node"></path>
<path d="M2220 2635 c0 -2 9 -9 19 -14 14 -8 22 -7 31 4 11 13 8 15 -19 15
-17 0 -31 -2 -31 -5z" id="node42" class="node"></path>
<path d="M2530 2631 c0 -5 6 -14 13 -20 11 -8 18 -6 32 9 18 20 17 20 -13 20
-18 0 -32 -4 -32 -9z" id="node43" class="node"></path>
<path d="M0 2200 c0 -32 14 -40 24 -15 6 18 -2 45 -15 45 -5 0 -9 -13 -9 -30z" id="node44" class="node"></path>
<path d="M2983 2214 c-3 -8 -1 -20 6 -27 8 -8 11 -4 11 16 0 30 -7 35 -17 11z" id="node45" class="node"></path>
<path d="M0 1904 c0 -22 2 -24 14 -14 8 6 12 18 9 26 -9 23 -23 16 -23 -12z" id="node46" class="node"></path>
<path d="M2977 1924 c-8 -8 3 -34 14 -34 5 0 9 9 9 20 0 19 -11 26 -23 14z" id="node47" class="node"></path>
<path d="M0 1617 c0 -27 13 -36 26 -16 3 6 -1 18 -10 27 -15 15 -16 14 -16
-11z" id="node48" class="node"></path>
<path d="M2981 1626 c-9 -10 -8 -16 4 -26 13 -11 15 -8 15 14 0 30 -3 32 -19
12z" id="node49" class="node"></path>
<path d="M0 1308 c0 -30 0 -31 20 -13 15 14 17 21 9 32 -19 22 -29 15 -29 -19z" id="node50" class="node"></path>
<path d="M2977 1334 c-8 -8 3 -34 14 -34 5 0 9 9 9 20 0 19 -11 26 -23 14z" id="node51" class="node"></path>
<path d="M0 1020 c0 -32 1 -33 17 -17 16 16 16 18 0 34 -16 16 -17 15 -17 -17z" id="node52" class="node"></path>
<path d="M2981 1036 c-9 -10 -8 -16 4 -26 13 -11 15 -8 15 14 0 30 -3 32 -19
12z" id="node53" class="node"></path>
<path d="M0 724 c1 -36 2 -38 15 -20 19 25 19 31 0 46 -13 11 -15 7 -15 -26z" id="node54" class="node"></path>
<path d="M2975 740 c-7 -12 2 -30 16 -30 5 0 9 9 9 20 0 21 -15 27 -25 10z" id="node55" class="node"></path>
<path d="M0 437 c0 -27 13 -36 26 -16 3 6 -1 18 -10 27 -15 15 -16 14 -16 -11z" id="node56" class="node"></path>
<path d="M2980 450 c-13 -8 -13 -11 3 -27 16 -16 17 -16 17 10 0 30 0 30 -20
17z" id="node57" class="node"></path>
<path d="M1335 20 c-18 -19 -17 -20 13 -20 35 0 39 5 18 25 -12 12 -16 11 -31
-5z" id="node58" class="node"></path>
<path d="M2540 25 c-17 -20 -9 -27 25 -23 27 3 27 3 8 21 -18 16 -21 16 -33 2z" id="node59" class="node"></path>
<path d="M1040 20 c-19 -12 -7 -22 21 -18 19 2 20 5 8 15 -9 7 -20 9 -29 3z" id="node60" class="node"></path>
<path d="M1640 15 c-11 -13 -8 -15 15 -15 23 0 26 2 15 15 -7 8 -14 15 -15 15
-1 0 -8 -7 -15 -15z" id="node61" class="node"></path>
<path d="M1940 20 c-19 -12 -7 -22 21 -18 19 2 20 5 8 15 -9 7 -20 9 -29 3z" id="node62" class="node"></path>
<path d="M2240 20 c-21 -13 -7 -22 27 -18 27 3 27 4 7 15 -12 7 -26 8 -34 3z" id="node63" class="node"></path>
<path d="M425 10 c-4 -6 5 -10 19 -10 14 0 26 5 26 10 0 6 -9 10 -19 10 -11 0
-23 -4 -26 -10z" id="node64" class="node"></path>
<path d="M730 10 c0 -5 9 -10 20 -10 11 0 20 5 20 10 0 6 -9 10 -20 10 -11 0
-20 -4 -20 -10z" id="node65" class="node"></path>
</g>
</svg>